<svg xmlns="http://www.w3.org/2000/svg" viewBox="0 0 170.64 169.62"><title>logo-l</title><g id="Layer_2" data-name="Layer 2"><g id="Meny"><path d="M85,169.21C38.15,169,.22,132.45.42,87.73A93.77,93.77,0,0,1,23.06,27.24C38.25,9.85,58.76.32,80.81.42h.83L81.26,85.8l89-.7V86C169.64,131.28,130.6,169.41,85,169.21ZM80,2.08C42.52,2.39,2.31,35,2.08,87.74c-.19,43.8,37,79.6,82.9,79.81,44.45.19,82.52-36.71,83.55-80.77l-88.94.7Z"/><path d="M85,169.62c-47-.2-85.17-36.94-85-81.89A94.21,94.21,0,0,1,22.75,27C38,9.48,58.64-.1,80.81,0h1.25l-.38,85.37,89-.69,0,1.27C170.05,131.51,130.82,169.83,85,169.62ZM80.81.83C58.88.74,38.48,10.21,23.37,27.52A93.35,93.35,0,0,0,.83,87.73C.64,132.22,38.38,168.59,85,168.79c45.41.2,84.25-37.74,84.82-82.84v-.43l-89,.7L81.22.83ZM85,168c-46.13-.2-83.5-36.19-83.31-80.22.11-24.38,9-46.67,25.11-62.78C41.4,10.31,60.79,1.82,80,1.66h.42L80,87.06l89-.7v.43C167.91,131,129.46,168.16,85,168ZM79.55,2.5C32.17,3.15,2.67,47.17,2.49,87.74,2.3,131.32,39.3,166.93,85,167.13c43.89.19,81.86-36.37,83.12-79.93l-88.92.69Z"/></g></g></svg>