<svg xmlns="http://www.w3.org/2000/svg" viewBox="0 0 219.27 219.31"><defs><style>.cls-1{fill:#fff;}</style></defs><title>logo-l-bg</title><g id="Layer_2" data-name="Layer 2"><g id="Layer_1-2" data-name="Layer 1"><path d="M102.71,107.07,103.19,0h-1.6C73.16-.13,47.74,12.26,28.16,34.87,9.75,56.13.13,84.77,0,113.43c-.25,58.12,53,105.62,113.3,105.88,58.8.26,105.21-52.6,106-111.5l0-1.64Zm10.61,109C54.76,215.83,3,169.78,3.2,113.44,3.43,61,39.23,4.07,100,3.23L99.5,110.32l116.52-.9C214.4,165.74,169.6,216.34,113.32,216.09Z"/><path class="cls-1" d="M113.32,216.09C54.76,215.83,3,169.78,3.2,113.44,3.43,61,39.23,4.07,100,3.23L99.5,110.32l116.52-.9C214.4,165.74,169.6,216.34,113.32,216.09Z"/></g></g></svg>