<svg xmlns="http://www.w3.org/2000/svg" viewBox="0 0 216.75 288.18"><defs><style>.cls-1{fill:#fff;}</style></defs><title>text</title><g id="Layer_2" data-name="Layer 2"><g id="Layer_1-2" data-name="Layer 1"><path d="M35.13,83.83H.53V.53H63.05C79,.53,85.73,1.92,92,6.46s9.81,12.51,9.81,22.4c0,11.25-4,19.57-11.72,24C84,56.35,78.74,57.18,63.3,57.18H35.13ZM2.67,81.7H33V55.05H63.3c15,0,20-.79,25.76-4C96,47,99.71,39.31,99.71,28.86c0-9.19-3.17-16.53-8.93-20.67C84.84,3.91,78.62,2.67,63.05,2.67H2.67ZM53,38.81H33.24V17.45H53.07c7.72,0,11,.69,13.37,2.82a9.58,9.58,0,0,1,3.16,7.49c0,4.38-2,8.06-5.45,9.83C62.15,38.46,58.82,38.81,53,38.81ZM35.37,36.68H53c5.49,0,8.66-.32,10.29-1,2.62-1.37,4.22-4.34,4.22-7.91A7.49,7.49,0,0,0,65,21.88c-1.93-1.72-5-2.3-12-2.3H35.37Z"/><path d="M35.67,84.37H0V0H63.05c16,0,22.88,1.41,29.29,6s10,12.77,10,22.84c0,11.45-4.15,19.93-12,24.5-6.22,3.5-11.54,4.36-27.09,4.36H35.67ZM1.07,83.3H34.6V56.65H63.3c15.32,0,20.54-.83,26.55-4.21,7.5-4.37,11.46-12.53,11.46-23.58,0-9.72-3.41-17.52-9.6-22S78.83,1.07,63.05,1.07h-62Zm32.46-1.07H2.14V2.14H63.05c15.7,0,22,1.26,28,5.62,5.9,4.24,9.15,11.74,9.15,21.1,0,10.65-3.77,18.48-10.92,22.65-5.81,3.27-10.92,4.07-26,4.07H33.53ZM3.2,81.16H32.47V54.52H63.3c14.87,0,19.88-.78,25.49-3.94,6.79-4,10.38-11.47,10.38-21.72,0-9-3.09-16.2-8.7-20.24-5.84-4.2-12-5.42-27.42-5.42H3.2ZM53,39.34H32.7V16.92H53.07c7.87,0,11.2.72,13.72,2.95a10,10,0,0,1,3.34,7.89c0,4.59-2.14,8.44-5.73,10.31C62.29,39,59,39.34,53,39.34ZM33.77,38.28H53c5.8,0,9.08-.35,11-1.18,3.2-1.66,5.12-5.16,5.12-9.34a9,9,0,0,0-3-7.08c-2.3-2-5.46-2.7-13-2.7H33.77ZM53,37.21H34.84V19.05H53.07c7.17,0,10.27.61,12.32,2.43A8,8,0,0,1,68,27.76c0,3.78-1.69,6.91-4.51,8.38C61.76,36.88,58.52,37.21,53,37.21Zm-17-1.07H53c5.42,0,8.52-.3,10.08-1,2.43-1.27,3.9-4.05,3.9-7.42a7,7,0,0,0-2.25-5.48c-1.82-1.62-4.75-2.16-11.61-2.16H35.91Z"/><path d="M181.4,99v43.22c0,13.64-3.9,18.47-14.91,18.48s-15-4.84-15-18.48V99H116.2v48.45c0,13.22,2.41,20.77,8.59,26.94,7.74,7.76,21.38,11.53,41.7,11.53,19,0,32.17-3.34,40.18-10.23,7.19-6.17,10-14.09,10-28.24V99Zm-14.91,83.72c-19.45,0-32.38-3.47-39.5-10.62-5.5-5.49-7.65-12.4-7.65-24.65V102.19h29v40c0,15.4,5.27,21.68,18.17,21.68s18-6.28,18-21.68v-40h29v45.25c0,13.08-2.49,20.31-8.88,25.79C197.23,179.61,184.75,182.71,166.49,182.71Z"/><path d="M216.22,83.83H116.74V.53h95.7V23.59l-60.84,0v6.83H202v23H151.6V60.3h64.62ZM118.87,81.7h95.21V62.43H149.47V51.29h50.37V32.6H149.47V21.45h60.84V2.67H118.87Z"/><path d="M216.75,84.37H116.2V0H213V24.12l-60.85,0v5.77h50.38V54H152.13v5.8h64.62ZM117.27,83.3h98.41V60.83H151.07V52.89h50.38V31H151.07V23.09l60.84,0v-22H117.27Zm97.34-1.07H118.34V2.14h92.5V22H150V32.06h50.38V51.82H150V61.9h64.61ZM119.4,81.16h94.15V63H148.93V50.76h50.38V33.13H148.93V20.92h60.84V3.2H119.4Z"/><path d="M99.31,183.69H60.36L35.47,154.55h-.34v29.15H.54V99.53H35.13v29.14h.34L60.36,99.53h39v4.31l-34,37.77,34,37.77Zm-37.94-2.14h35.8v-1.32l-34.8-38.62L97.17,103v-1.32H61.37L37.48,130.79l-4.48,0V101.66H2.68v79.89H33V152.4l4.48,0Z"/><path d="M99.84,184.22H60.11L37.22,155.09H35.67v29.14H0V99H35.67v29.14h1.55L60.11,99H99.84v5.06l-.15.16-33.64,37.4,33.79,37.55Zm-39.22-1.07H98.77v-3.56l-34.19-38,34.19-38v-3.56H60.62l-24.9,29.13-1.12,0V100.06H1.07v83.09H34.6V154h1.12Zm37.09-1.06H61.12L37.23,153h-3.7v29.15H2.14v-81H33.53v29.14h3.7l23.89-29.13H97.71v2.06l-.15.16L63.11,141.61,97.71,180ZM61.63,181h35v-.58l-35-38.83,35-38.84v-.58h-35L37.74,131.33H32.47V102.19H3.21V181H32.47V151.87l5.27,0Z"/><path class="cls-1" d="M184.69,286.68,181.25,279H146.89l-3.06,7.69H115.64v-2.83l29.11-79.6h40.42l29.22,79.62v2.81ZM152,259.35l26.16,0L164.6,223.15Z"/><path d="M145.79,205.75h38.33l28.77,78.39v1H185.66L183,279.26l-.8-1.77H145.88l-.76,1.89-2.31,5.8H117.14v-1.06l28.65-78.37m34.49,55.14-1.51-4.06-11.31-30.31-2.91-7.78-2.73,7.84-10.58,30.29-1.39,4h4.22l21.88,0h4.33M143.7,202.75l-29.56,80.84v4.59h30.71l3.06-7.69h32.37l3.43,7.69h32.18v-4.57l-29.67-80.86ZM176,257.88l-21.88,0,10.57-30.28L176,257.88Z"/></g></g></svg>