<svg xmlns="http://www.w3.org/2000/svg" viewBox="0 0 169.3 221.77"><defs><style>.cls-1{fill:#fff;}</style></defs><title>logo-text</title><g id="Layer_2" data-name="Layer 2"><g id="Meny"><path d="M27.56,65.25H.42V.42H49.08C61.46.42,66.73,1.49,71.63,5s7.64,9.73,7.64,17.43c0,8.76-3.15,15.23-9.12,18.72-4.77,2.68-8.86,3.33-20.88,3.33H27.56ZM2.08,63.59H25.9V42.85H49.27c11.67,0,15.6-.61,20-3.11,5.42-3.17,8.29-9.14,8.29-17.28,0-7.15-2.47-12.86-7-16.09S61.19,2.08,49.08,2.08h-47ZM41.22,30.21H25.87V13.58H41.31c6,0,8.53.54,10.4,2.2a7.43,7.43,0,0,1,2.46,5.83,8.32,8.32,0,0,1-4.23,7.65C48.38,29.93,45.79,30.21,41.22,30.21ZM27.53,28.55H41.22c4.27,0,6.74-.24,8-.79a6.68,6.68,0,0,0,3.29-6.15A5.83,5.83,0,0,0,50.62,17c-1.51-1.34-3.85-1.79-9.31-1.79H27.53Z"/><path d="M28,65.67H0V0H49.08c12.48,0,17.81,1.1,22.8,4.69s7.81,9.94,7.81,17.77c0,8.92-3.23,15.51-9.34,19.08-4.84,2.72-9,3.39-21.08,3.39H28ZM.83,64.84H27.14V44.1H49.27c11.93,0,16-.65,20.67-3.28,5.83-3.41,8.92-9.75,8.92-18.36,0-7.56-2.66-13.63-7.47-17.1S61.36.83,49.08.83H.83ZM26.31,64H1.66V1.66H49.08c12.22,0,17.11,1,21.82,4.38S78,15.17,78,22.46c0,8.3-2.94,14.39-8.5,17.63C65,42.64,61,43.26,49.27,43.26h-23ZM2.49,63.18h23V42.43H49.27c11.58,0,15.48-.6,19.84-3.06,5.29-3.08,8.08-8.93,8.08-16.91,0-7-2.4-12.6-6.77-15.75-4.54-3.27-9.33-4.22-21.34-4.22H2.49ZM41.22,30.63H25.46V13.17H41.31c6.12,0,8.72.56,10.68,2.3a7.84,7.84,0,0,1,2.6,6.14,8.73,8.73,0,0,1-4.46,8C48.48,30.34,45.91,30.63,41.22,30.63Zm-14.93-.84H41.22c4.51,0,7.06-.27,8.55-.91a7.91,7.91,0,0,0,4-7.27,7,7,0,0,0-2.32-5.52C49.65,14.51,47.19,14,41.31,14h-15ZM41.22,29H27.12V14.83H41.31c5.58,0,8,.48,9.58,1.89a6.23,6.23,0,0,1,2,4.89,7.07,7.07,0,0,1-3.51,6.52C48.07,28.71,45.55,29,41.22,29ZM28,28.13H41.22c4.21,0,6.63-.23,7.84-.75a6.27,6.27,0,0,0,3-5.77,5.45,5.45,0,0,0-1.75-4.27c-1.42-1.26-3.7-1.68-9-1.68H28Z"/><path d="M128.07,144.3c-16,0-26.73-2.9-32.78-8.86-4.82-4.72-6.69-10.51-6.69-20.67V77.47h27.14v33.22c0,10.79,3.34,14.8,12.33,14.8s12.24-4,12.24-14.8V77.47h27.14v37.3c0,10.87-2.18,16.94-7.78,21.66C153.4,141.72,143.06,144.3,128.07,144.3ZM90.26,79.13v35.64c0,9.65,1.73,15.12,6.19,19.48,5.73,5.64,16.07,8.38,31.62,8.38,14.59,0,24.57-2.44,30.53-7.47,5.18-4.36,7.19-10.07,7.19-20.39V79.13H142v31.56c0,11.69-4,16.46-13.9,16.46s-14-4.77-14-16.46V79.13Z"/><path d="M128.07,144.71c-16.12,0-26.94-2.94-33.08-9-4.9-4.8-6.81-10.68-6.81-21V77.05h28v33.64c0,10.62,3.12,14.39,11.92,14.39s11.82-3.77,11.82-14.39V77.05h28v37.72c0,11-2.22,17.17-7.93,22C153.59,142.11,143.17,144.71,128.07,144.71ZM89,77.88v36.89c0,10,1.84,15.74,6.57,20.37,6,5.88,16.6,8.74,32.49,8.74,14.89,0,25.14-2.54,31.34-7.77,5.49-4.62,7.63-10.61,7.63-21.34V77.88H140.73v32.81c0,11-3.55,15.22-12.66,15.22s-12.75-4.27-12.75-15.22V77.88Zm39.06,65.17c-15.66,0-26.1-2.78-31.91-8.5-4.55-4.45-6.32-10-6.32-19.78v-36h24.65v32c0,11.4,3.94,16,13.58,16s13.49-4.65,13.49-16v-32h24.65v36.05c0,10.45-2.06,16.26-7.34,20.71C152.83,140.57,142.76,143.05,128.07,143.05Zm-37.4-63.5v35.22c0,9.53,1.71,14.91,6.07,19.18,5.65,5.57,15.9,8.27,31.33,8.27,14.48,0,24.38-2.42,30.27-7.38,5.06-4.27,7-9.89,7-20.07V79.55h-23v31.14c0,12-4.15,16.88-14.32,16.88s-14.41-4.89-14.41-16.88V79.55Z"/><path d="M166.74,65.25H89.31V.42h74.5V18.36l-47.36,0v5.32h39.21V41.58H116.45v5.34h50.29ZM91,63.59h74.11v-15h-50.3V39.92H154V25.37H114.78V16.7h47.36V2.08H91Z"/><path d="M167.16,65.67H88.89V0h75.33V18.78l-47.36,0V23.3h39.22V42H116.86v4.52h50.3Zm-77.44-.83h76.61V47.35H116V41.17h39.21v-17H116V18l47.36,0V.83H89.72ZM165.49,64H90.55V1.66h72V17.11H115.2V25h39.21V40.34H115.2v7.84h50.29Zm-74.1-.83h73.27V49H114.37v-9.5h39.21V25.79H114.37V16.28h47.36V2.49H91.39Z"/><path d="M79.27,143H47.4L28.8,120.3H26.21V143H.42V77.47H26.21v22.68H28.8L47.4,77.47H79.27v3.35l-28,29.4,28,29.4Zm-31.08-1.66H77.61v-1L49,110.22,77.61,80.16v-1H48.19l-18.6,22.68h-5V79.13H2.08v62.19H24.55V118.63h5Z"/><path d="M79.69,143.39H47.21l-18.6-22.67h-2v22.68H0V77.05H26.62V99.74h2l18.6-22.68H79.69V81l-.12.12L51.83,110.22l27.86,29.24Zm-32.09-.83H78.86v-2.77L50.68,110.22,78.86,80.66V77.88H47.6L29,100.56H25.79V77.88H.84v64.68h25V119.88H29ZM78,141.73H48L29.4,119.06H25v22.68H1.67v-63H25V101.4H29.4L48,78.72H78v1.6l-.12.13L49.54,110.22,78,140.12Zm-29.65-.83H77.19v-.45l-28.8-30.23L77.19,80v-.44H48.38L29.79,102.22l-5.66,0V79.55H2.5V140.9H24.13V118.21l5.66,0Z"/><polygon points="145.48 155.98 145.17 155.19 111.56 155.19 87.6 216.57 87.51 221.77 114.18 221.77 116.47 216 139 216 141.58 221.77 169.3 221.77 169.3 217.04 145.48 155.98"/><polygon class="cls-1" points="90.01 219.27 90.01 217.26 113.26 157.68 143.47 157.68 166.81 217.28 166.81 219.27 143.2 219.27 140.62 213.51 114.78 213.51 112.49 219.27 90.01 219.27"/><path d="M127.68,167.05l-11.59,33-.2.55h23.37Zm0,7.59,8.11,23.5H119.41Z"/></g></g></svg>