<?xml version="1.0" standalone="no"?>
<!DOCTYPE svg PUBLIC "-//W3C//DTD SVG 20010904//EN"
 "http://www.w3.org/TR/2001/REC-SVG-20010904/DTD/svg10.dtd">
<svg version="1.0" xmlns="http://www.w3.org/2000/svg"
 width="243.000000pt" height="243.000000pt" viewBox="0 0 243.000000 243.000000"
 preserveAspectRatio="xMidYMid meet">
<metadata>
Created by potrace 1.11, written by Peter Selinger 2001-2013
</metadata>
<g transform="translate(0.000000,243.000000) scale(0.100000,-0.100000)"
fill="#000000" stroke="none">
<path d="M580 2182 l0 -250 108 2 107 1 0 72 c1 40 3 74 6 77 2 3 62 6 132 7
145 1 197 19 230 76 24 43 24 131 0 180 -35 73 -56 78 -335 81 l-248 3 0 -249z
m505 208 c67 -34 95 -128 59 -203 -28 -58 -61 -70 -203 -73 -69 -2 -136 -3
-148 -3 -22 -1 -23 -5 -23 -76 l0 -75 -80 0 c-76 0 -80 1 -81 23 -1 25 -1 358
0 398 l1 26 223 -1 c173 -1 229 -5 252 -16z"/>
<path d="M771 2266 c0 -43 3 -65 12 -68 18 -6 149 -2 173 6 44 14 53 95 14
116 -10 6 -59 10 -108 10 l-90 0 -1 -64z m180 34 c21 -12 25 -50 7 -68 -13
-13 -158 -17 -159 -4 0 4 -1 24 -2 45 l-2 37 68 0 c38 0 77 -5 88 -10z"/>
<path d="M1250 2181 l0 -250 295 1 295 1 0 73 c0 63 -3 74 -17 75 -10 0 -96 1
-190 2 -138 0 -173 3 -173 14 0 10 31 13 149 13 l149 0 -2 73 -1 72 -130 2
c-71 1 -138 2 -147 2 -10 1 -18 7 -18 14 0 11 32 14 153 14 83 1 164 1 178 2
26 1 27 3 27 71 l1 70 -285 0 -284 0 0 -249z m540 217 c0 -5 0 -26 0 -48 l0
-40 -175 0 -175 0 0 -39 0 -39 145 2 145 1 0 -46 c0 -29 -5 -48 -12 -51 -7 -2
-73 -3 -145 -3 l-133 1 0 -38 0 -38 188 0 188 0 1 -50 2 -50 -274 0 -275 0 0
224 0 223 260 -1 c143 -1 260 -4 260 -8z"/>
<path d="M590 1852 c-6 -2 -10 -96 -10 -253 l0 -250 103 3 102 3 3 75 c1 41 4
79 5 84 2 5 34 -30 73 -77 l69 -86 121 -1 c101 0 123 3 128 16 5 14 -17 39
-187 217 -21 21 -20 22 63 107 101 103 132 142 122 152 -7 7 -59 11 -127 12
l-117 1 -71 -87 c-39 -48 -73 -85 -75 -83 -2 1 -3 39 -3 84 0 73 -2 81 -19 82
-71 3 -172 3 -180 1z m171 -39 c0 -10 1 -47 2 -83 2 -62 3 -65 27 -65 18 0 40
19 90 82 l65 82 103 0 c56 1 102 -2 102 -6 0 -5 -45 -53 -100 -108 -55 -55
-100 -104 -100 -110 1 -5 45 -57 100 -115 l99 -105 -47 -5 c-26 -3 -72 -4
-102 -2 l-56 4 -69 84 c-51 63 -75 84 -90 82 -18 -3 -20 -11 -21 -81 0 -42 -3
-79 -6 -82 -7 -7 -138 -8 -145 -1 -4 4 -7 363 -4 434 1 8 23 12 76 12 64 0 75
-2 76 -17z"/>
<path d="M1250 1850 c-4 -3 -7 -86 -6 -185 2 -148 5 -186 19 -212 41 -78 145
-115 307 -109 141 6 215 38 252 110 18 36 21 60 22 206 1 91 -1 172 -5 180 -6
14 -78 18 -196 11 -10 -1 -13 -37 -13 -146 0 -88 -5 -154 -12 -169 -13 -29
-60 -47 -102 -39 -50 10 -58 38 -58 203 -1 146 -1 150 -22 151 -77 4 -179 3
-186 -1z m181 -47 c0 -16 2 -82 3 -148 1 -83 6 -127 16 -142 38 -59 147 -57
186 2 14 21 17 52 18 171 l0 144 83 0 83 0 0 -160 c0 -181 -8 -212 -62 -253
-43 -33 -112 -49 -219 -49 -141 0 -233 39 -260 110 -8 21 -12 121 -10 280 l1
72 80 0 80 0 1 -27z"/>
<path d="M1085 1269 c-249 -33 -458 -255 -511 -543 -11 -62 -6 -192 11 -256
36 -139 146 -291 265 -365 157 -99 361 -129 531 -79 223 66 407 263 453 486
21 101 21 128 -1 129 -10 0 -160 0 -334 -1 l-316 -1 -1 298 c0 164 -1 308 -1
320 -1 25 -1 25 -96 12z m75 -339 l0 -319 330 6 330 5 0 -38 c-1 -148 -122
-350 -268 -448 -194 -129 -411 -145 -617 -46 -173 84 -288 223 -330 401 -31
134 -11 278 61 427 51 105 141 206 229 257 68 39 171 74 223 74 l42 1 0 -320z"/>
<path d="M1417 1263 c-20 -33 -177 -454 -177 -474 0 -24 1 -24 83 -23 125 3
124 2 130 24 5 18 14 20 85 20 71 0 81 -2 94 -22 13 -20 23 -22 111 -21 54 0
100 3 103 5 14 14 1 57 -68 233 -42 105 -81 207 -89 228 l-13 37 -127 0 c-70
0 -130 -3 -132 -7z m325 -233 c47 -118 87 -221 87 -227 1 -10 -22 -13 -84 -13
-74 0 -86 2 -95 20 -10 18 -21 20 -111 20 -92 0 -101 -2 -106 -20 -5 -18 -14
-20 -90 -20 -64 0 -84 3 -80 13 3 6 36 93 75 192 38 99 76 196 85 216 l15 37
108 -2 109 -1 87 -215z"/>
<path d="M1495 1058 c-21 -62 -40 -118 -42 -125 -3 -8 21 -11 87 -11 65 0 90
3 87 11 -2 7 -21 63 -42 125 -21 61 -41 112 -44 112 -4 0 -24 -51 -46 -112z
m74 -30 c13 -40 23 -75 22 -77 -1 -4 -15 -5 -85 -2 l-25 1 25 62 c13 34 24 68
24 75 0 34 18 6 39 -59z"/>
</g>
</svg>
